<svg width="415px" height="415px" viewBox="0 0 415 415" version="1.1" xmlns="http://www.w3.org/2000/svg" xmlns:xlink="http://www.w3.org/1999/xlink">
    <g id="Page-1" stroke="none" stroke-width="1" fill="none" fill-rule="evenodd">
        <g id="Toggl-logo" transform="translate(0.000000, -1.000000)" fill-rule="nonzero" fill="#F30C16">
            <g id="Group" transform="translate(208.000000, 208.900000) scale(-1, 1) rotate(-180.000000) translate(-208.000000, -208.900000) translate(0.500000, 0.900000)">
                <path d="M190,415.3 C188.4,415.1 183,414.4 178,413.8 C144.4,409.6 107.8,394.2 80.2,372.5 C37.9,339.6 11.1,294.4 1.8,240.4 C-0.6,226.4 -0.6,190.4 1.8,176.4 C7.8,142.1 20.7,111.3 40.4,84.8 C79.7,31.9 141.1,1 206.8,0.9 C338,0.8 435.9,120.4 410.4,249.4 C397.1,316.8 349.2,374.6 285.3,400.5 C270.9,406.3 254.6,410.9 239.5,413.4 C230.5,414.9 196.6,416.2 190,415.3 Z M221.5,262.9 L221.5,190.9 L207,190.9 L192.5,190.9 L192.5,262.9 L192.5,334.9 L207,334.9 L221.5,334.9 L221.5,262.9 Z M180.5,286.4 L180.5,271.9 L177.8,270.8 C166.9,266.7 150.5,252.2 143.7,240.7 C129.7,217.1 130.5,186.5 145.6,163.2 C151.9,153.6 163.8,143 173.7,138.1 C186.3,131.8 192.8,130.4 208,130.5 C219.1,130.6 222.1,131 228.7,133.1 C241.1,137.2 249,142.2 259,152.3 C266.3,159.6 268.9,163.1 272.3,169.9 C277.3,180.2 279.4,187.7 280.2,198.6 C281.3,213.6 276.9,230.8 268.9,242.9 C261.5,254 248.7,265.3 237.9,270 L233.5,272 L233.5,286.4 C233.5,295.7 233.9,300.9 234.5,300.9 C237,300.9 251.6,294.6 258.5,290.5 C269.2,284.2 278.6,276 286.1,266.6 C318.4,225.7 315.2,168.8 278.6,131.8 C252,105.1 212.8,95.3 177,106.6 C143.2,117.3 118.1,143.8 108.8,178.6 C106.5,187.1 106.2,190.4 106.2,203.4 C106.2,216.4 106.5,219.7 108.8,228.4 C115.7,254.1 132.6,276.8 154.9,290.2 C161.6,294.2 176.8,300.8 179.3,300.9 C180.2,300.9 180.5,297.3 180.5,286.4 Z" id="Shape"></path>
            </g>
        </g>
    </g>
</svg>